<svg width="350" height="70" viewBox="0 0 466 87" fill="none" xmlns="http://www.w3.org/2000/svg">
<g clip-path="url(#clip0_19_2)">
<path d="M110.032 33.4856H112.024V49.7576H110.032V33.4856ZM111.4 40.5896H115.24V42.2696H111.4V40.5896ZM95.248 36.1016H108.064V37.7096H95.248V36.1016ZM101.656 38.9096C104.728 38.9096 106.84 40.5176 106.84 42.9656C106.84 45.3896 104.728 46.9976 101.656 46.9976C98.56 46.9976 96.448 45.3896 96.448 42.9656C96.448 40.5176 98.56 38.9096 101.656 38.9096ZM101.656 40.4696C99.688 40.4696 98.344 41.4536 98.344 42.9656C98.344 44.4536 99.688 45.4376 101.656 45.4376C103.6 45.4376 104.944 44.4536 104.944 42.9656C104.944 41.4536 103.6 40.4696 101.656 40.4696ZM100.648 33.4616H102.64V36.9416H100.648V33.4616ZM98.512 53.0456H113.008V54.6776H98.512V53.0456ZM98.512 48.4616H100.504V53.7416H98.512V48.4616ZM133.046 33.4616H135.062V46.3256H133.046V33.4616ZM118.382 43.6616H120.134C124.07 43.6616 126.974 43.5416 130.454 42.9896L130.67 44.5976C127.094 45.1976 124.166 45.3176 120.134 45.3176H118.382V43.6616ZM118.334 34.7576H128.174V40.6856H120.326V44.6456H118.382V39.1496H126.23V36.3896H118.334V34.7576ZM121.046 47.5256H135.062V54.8696H121.046V47.5256ZM133.094 49.1096H122.99V53.2616H133.094V49.1096ZM149.076 47.1416C153.684 47.1416 156.636 48.6536 156.636 51.1496C156.636 53.6216 153.684 55.1096 149.076 55.1096C144.444 55.1096 141.516 53.6216 141.516 51.1496C141.516 48.6536 144.444 47.1416 149.076 47.1416ZM149.076 48.7016C145.668 48.7016 143.484 49.6376 143.484 51.1496C143.484 52.6376 145.668 53.5736 149.076 53.5736C152.484 53.5736 154.644 52.6376 154.644 51.1496C154.644 49.6376 152.484 48.7016 149.076 48.7016ZM141.684 34.5416H155.652V36.1736H141.684V34.5416ZM139.356 43.5656H158.94V45.1736H139.356V43.5656ZM147.396 39.3896H149.364V44.0216H147.396V39.3896ZM154.5 34.5416H156.444V36.3896C156.444 38.1416 156.444 39.8936 155.868 42.1496L153.9 41.9096C154.5 39.6776 154.5 38.0936 154.5 36.3896V34.5416ZM163.498 35.6216H177.466V37.2776H163.498V35.6216ZM161.434 50.4776H181.042V52.1336H161.434V50.4776ZM169.042 42.7256H171.034V51.2936H169.042V42.7256ZM176.722 35.6216H178.69V37.7816C178.69 40.4696 178.69 43.4456 177.898 47.8376L175.906 47.5736C176.722 43.4216 176.722 40.3736 176.722 37.7816V35.6216ZM188.88 50.7176H208.536V52.3736H188.88V50.7176ZM190.584 35.6216H206.688V37.2536H190.584V35.6216ZM190.632 44.7896H206.664V46.4216H190.632V44.7896ZM193.968 37.1336H195.96V44.9576H193.968V37.1336ZM201.36 37.1336H203.328V44.9576H201.36V37.1336ZM210.958 50.8376H230.614V52.4936H210.958V50.8376ZM219.742 46.1816H221.734V51.5336H219.742V46.1816ZM213.334 35.0696H228.19V41.6456H215.374V45.9896H213.406V40.0376H226.222V36.6776H213.334V35.0696ZM213.406 45.1496H228.694V46.7816H213.406V45.1496ZM235.148 35.7656H249.116V37.3736H235.148V35.7656ZM233.036 50.3336H252.644V51.9896H233.036V50.3336ZM248.06 35.7656H250.004V37.9256C250.004 40.7096 250.004 43.8056 249.188 48.4856L247.196 48.2936C248.06 43.8536 248.06 40.6136 248.06 37.9256V35.7656ZM255.81 48.3176H257.25C259.89 48.3176 262.29 48.2216 265.218 47.7176L265.386 49.3736C262.386 49.9016 259.938 49.9736 257.25 49.9736H255.81V48.3176ZM255.762 35.8136H263.898V43.4456H257.754V48.9416H255.81V41.8136H261.954V37.4456H255.762V35.8136ZM271.602 33.4616H273.522V55.1576H271.602V33.4616ZM267.93 42.0296H272.106V43.6616H267.93V42.0296ZM266.682 33.9416H268.554V54.0536H266.682V33.9416ZM278.32 35.0456H288.424V44.5016H278.32V35.0456ZM286.504 36.6536H280.24V42.8936H286.504V36.6536ZM292.96 33.4856H294.976V46.4216H292.96V33.4856ZM287.8 46.8056C292.288 46.8056 295.096 48.3416 295.096 50.9576C295.096 53.5976 292.288 55.1096 287.8 55.1096C283.312 55.1096 280.528 53.5976 280.528 50.9576C280.528 48.3416 283.312 46.8056 287.8 46.8056ZM287.8 48.3896C284.512 48.3896 282.496 49.3496 282.496 50.9576C282.496 52.5656 284.512 53.5496 287.8 53.5496C291.088 53.5496 293.104 52.5656 293.104 50.9576C293.104 49.3496 291.088 48.3896 287.8 48.3896ZM300.518 43.4936H302.27C306.95 43.4936 309.518 43.3976 312.566 42.8696L312.782 44.4536C309.638 45.0056 306.998 45.0776 302.27 45.0776H300.518V43.4936ZM300.518 34.7816H310.838V36.3896H302.486V44.3096H300.518V34.7816ZM301.838 39.0536H310.238V40.6616H301.838V39.0536ZM315.038 33.4856H317.054V46.3976H315.038V33.4856ZM303.038 47.4776H317.054V54.8696H303.038V47.4776ZM315.086 49.0856H304.982V53.2616H315.086V49.0856Z" fill="#525252"/>
<path d="M336.712 53.2856V38.4776H331.696V35.5256H345.28V38.4776H340.264V53.2856H336.712ZM348.184 53.2856V35.5256H359.08V38.4776H351.736V42.5816H357.952V45.5816H351.736V50.3096H359.344V53.2856H348.184ZM360.67 53.2856L366.358 35.5256H370.534L376.222 53.2856H372.502L369.958 44.0456C369.43 42.1976 368.926 40.1336 368.422 38.2376H368.326C367.846 40.1576 367.342 42.1976 366.814 44.0456L364.27 53.2856H360.67ZM364.198 48.7256V45.9896H372.646V48.7256H364.198ZM378.325 53.2856V35.5256H382.237L385.261 43.8536C385.669 44.9576 385.981 46.1096 386.365 47.2616H386.461C386.869 46.1096 387.181 44.9576 387.541 43.8536L390.493 35.5256H394.429V53.2856H391.189V45.8696C391.189 44.1896 391.477 41.7176 391.669 40.0376H391.549L390.085 44.2136L387.349 51.7016H385.309L382.573 44.2136L381.133 40.0376H381.037C381.229 41.7176 381.493 44.1896 381.493 45.8696V53.2856H378.325ZM404.223 53.2856V35.5256H407.775V42.5336H414.495V35.5256H418.023V53.2856H414.495V45.6056H407.775V53.2856H404.223ZM425.915 53.2856V38.4776H420.899V35.5256H434.483V38.4776H429.467V53.2856H425.915ZM440.915 53.2856V38.4776H435.899V35.5256H449.483V38.4776H444.467V53.2856H440.915ZM452.387 53.2856V35.5256H458.219C462.131 35.5256 465.155 36.8936 465.155 41.1176C465.155 45.1736 462.131 46.9736 458.315 46.9736H455.939V53.2856H452.387ZM455.939 44.1656H458.075C460.523 44.1656 461.699 43.1336 461.699 41.1176C461.699 39.0296 460.403 38.3576 457.955 38.3576H455.939V44.1656Z" fill="#1A213A"/>
<path d="M15.5709 3.43491C16.1007 1.47637 18.0128 0.224678 20.0197 0.522734L64.769 7.16867C66.1539 7.37434 67.3304 8.28905 67.8711 9.58043L79.2753 36.8178C79.4243 37.1737 79.521 37.5493 79.5625 37.9329L83.5848 75.1571C83.8164 77.3004 82.3077 79.2418 80.1736 79.5466L33.2267 86.2533C32.1257 86.4106 31.0088 86.1023 30.1443 85.4025L2.02459 62.639C0.793842 61.6426 0.266684 60.0141 0.680141 58.4855L15.5709 3.43491Z" fill="#1A213A"/>
<path d="M28.0341 62.2856V27.3766H35.4148V41.78H50.3977V27.3766H57.7614V62.2856H50.3977V47.8652H35.4148V62.2856H28.0341Z" fill="white"/>
</g>
<defs>
<clipPath id="clip0_19_2">
<rect width="466" height="87" fill="white"/>
</clipPath>
</defs>
</svg>
