<svg width="70" height="70" viewBox="0 0 86 87" fill="none" xmlns="http://www.w3.org/2000/svg">
<g clip-path="url(#clip0_39_16)">
<path d="M15.5709 3.43491C16.1007 1.47637 18.0128 0.224678 20.0197 0.522734L64.769 7.16867C66.1539 7.37434 67.3304 8.28905 67.8711 9.58043L79.2753 36.8178C79.4243 37.1737 79.5211 37.5493 79.5625 37.9329L83.5848 75.1571C83.8164 77.3004 82.3077 79.2418 80.1736 79.5466L33.2267 86.2533C32.1257 86.4106 31.0088 86.1023 30.1443 85.4025L2.02459 62.639C0.793842 61.6426 0.266684 60.0141 0.680141 58.4855L15.5709 3.43491Z" fill="#1A213A"/>
<path d="M28.0341 62.2856V27.3766H35.4148V41.78H50.3977V27.3766H57.7614V62.2856H50.3977V47.8652H35.4148V62.2856H28.0341Z" fill="white"/>
</g>
<defs>
<clipPath id="clip0_39_16">
<rect width="86" height="87" fill="white"/>
</clipPath>
</defs>
</svg>
